# xmcd
#
# Track frame offsets: 
#        150
#        10081
#        21271
#        35071
#        45574
#        55623
#        64202
#        79119
#        92858
#        106995
#        121132
#
# Disc length: 1710 seconds
#
# Revision: 0
# Processed by: cddbd v1.5.2PL0 Copyright (c) Steve Scherf et al.
# Submitted via: ExactAudioCopyFreeDBPlugin 1.0
#
DISCID=8606ac0b
DTITLE=Chris Aron and The Croakers feat. Mike Sanchez - The Croakers fea
DTITLE=t. Mike Sanchez
DYEAR=2015
DGENRE=Rock and Roll
TTITLE0=Don't Tell Me Your Troubles
TTITLE1=Prettiest Girl At The Dance
TTITLE2=Only When I Sleep
TTITLE3=Uuuh!
TTITLE4=If You Love My Woman
TTITLE5=I Feel Good
TTITLE6=Gonna Catch Me A Rat
TTITLE7=Not The Only Girl
TTITLE8=Pipeliner
TTITLE9=Rocket Ship
TTITLE10=In My Way
EXTD=
EXTT0=
EXTT1=
EXTT2=
EXTT3=
EXTT4=
EXTT5=
EXTT6=
EXTT7=
EXTT8=
EXTT9=
EXTT10=
PLAYORDER=
